<?xml version="1.0" standalone="no"?><!DOCTYPE svg PUBLIC "-//W3C//DTD SVG 1.1//EN" "http://www.w3.org/Graphics/SVG/1.1/DTD/svg11.dtd"><svg t="1657110855870" class="icon" viewBox="0 0 1024 1024" version="1.1" xmlns="http://www.w3.org/2000/svg" p-id="3980" xmlns:xlink="http://www.w3.org/1999/xlink" width="200" height="200"><defs><style type="text/css"></style></defs><path d="M284.434286 971.428571h455.131428c88.722286 0 132.864-44.580571 132.864-134.144V187.136c0-89.142857-44.141714-134.564571-132.864-134.564571h-455.131428c-88.283429 0-132.864 45.421714-132.864 134.582857v650.130285c0 89.563429 44.580571 134.144 132.864 134.144z m3.419428-68.992c-44.141714 0-67.291429-23.588571-67.291428-66.432V188.434286c0-42.422857 23.149714-66.870857 67.730285-66.870857h447.853715c44.562286 0 67.291429 24.009143 67.291428 66.870857v647.570285c0 42.843429-22.729143 66.432-66.870857 66.432z m30.427429-441.014857c11.574857 0 18.870857-5.997714 22.710857-20.571428l14.994286-42.422857h80.164571l15.414857 42.422857c3.858286 14.153143 11.154286 20.571429 22.290286 20.571428 14.994286 0 23.149714-8.137143 23.149714-21.851428 0-2.998857-1.28-8.576-2.998857-14.134857l-63.012571-174.445715c-6.418286-17.993143-17.133714-26.569143-35.145143-26.569143-17.554286 0-27.849143 8.594286-34.285714 26.587429l-62.994286 174.427429c-2.139429 5.12-2.998857 11.136-2.998857 14.134857 0 13.714286 8.576 21.851429 22.710857 21.851428z m254.153143-162.852571h125.988571a26.148571 26.148571 0 0 0 26.569143-26.569143c0-14.573714-11.556571-26.148571-26.569143-26.148571h-125.988571c-15.853714 0-27.008 11.574857-27.008 26.148571 0 14.994286 11.154286 26.569143 27.008 26.569143z m-206.994286 64.292571l29.129143-90.002285h2.998857l29.147429 90.002285z m206.994286 85.284572h125.988571a26.148571 26.148571 0 0 0 26.569143-26.569143c0-14.573714-11.556571-26.148571-26.569143-26.148572h-125.988571c-15.853714 0-27.008 11.574857-27.008 26.148572 0 14.994286 11.154286 26.569143 27.008 26.569143zM288.713143 802.56h30.427428l56.137143-57.014857c8.155429-7.716571 16.731429-10.715429 25.289143-10.715429 8.576 0 18.011429 3.437714 26.148572 10.715429l35.145142 32.146286 87.862858-77.988572c9.856-8.594286 20.132571-12.434286 30.427428-12.434286 10.276571 0 21.412571 3.419429 29.129143 12.434286l85.723429 98.56h29.988571V593.426286c0-37.705143-19.712-56.996571-57.417143-56.996572H346.569143c-36.425143 0-57.856 19.291429-57.856 56.996572z m141.421714-102.857143c-25.709714 0-46.262857-21.430857-46.262857-46.299428 0-25.709714 20.553143-47.140571 46.262857-46.262858 25.289143 0.841143 46.299429 20.553143 46.299429 46.262858 0 24.868571-21.010286 46.299429-46.299429 46.299428z" p-id="3981"></path></svg>